<?xml version="1.0" encoding="UTF-8"?>
<!DOCTYPE svg PUBLIC "-//W3C//DTD SVG 1.1//EN" "http://www.w3.org/Graphics/SVG/1.1/DTD/svg11.dtd">
<!-- Creator: CorelDRAW X6 -->
<svg xmlns="http://www.w3.org/2000/svg" xml:space="preserve" width="1299px" height="812px" version="1.1" style="shape-rendering:geometricPrecision; text-rendering:geometricPrecision; image-rendering:optimizeQuality; fill-rule:evenodd; clip-rule:evenodd"
viewBox="0 0 129900 81188"
 xmlns:xlink="http://www.w3.org/1999/xlink">
 <defs>
  <style type="text/css">
   <![CDATA[
    .fil1 {fill:black}
    .fil0 {fill:#4F81BD;fill-rule:nonzero}
    .fnt1 {font-weight:normal;font-size:2040.61px;font-family:'Calibri'}
    .fnt2 {font-weight:normal;font-size:2040.61px;font-family:'宋体'}
    .fnt0 {font-weight:normal;font-size:2040.61px;font-family:'黑体'}
    .fnt3 {font-weight:normal;font-size:2575.92px;font-family:'黑体'}
   ]]>
  </style>
 </defs>
 <g id="图层_x0020_1">
  <metadata id="CorelCorpID_0Corel-Layer"/>
  <polygon class="fil0" points="13100,5482 13100,77226 12885,77226 12885,5482 "/>
  <polygon class="fil0" points="57027,5482 57027,77226 56919,77226 56919,5482 "/>
  <polygon class="fil0" points="120930,5482 120930,77226 120715,77226 120715,5482 "/>
  <polygon class="fil0" points="74211,5482 74211,77226 74103,77226 74103,5482 "/>
  <polygon class="fil0" points="104820,5482 104820,77226 104713,77226 104713,5482 "/>
  <polygon class="fil0" points="7193,8275 121038,8275 121038,8490 7193,8490 "/>
  <polygon class="fil0" points="7195,16857 121040,16857 121040,16965 7195,16965 "/>
  <polygon class="fil0" points="7193,5482 121038,5482 121038,5697 7193,5697 "/>
  <polygon class="fil0" points="7193,28359 121038,28359 121038,28466 7193,28466 "/>
  <polygon class="fil0" points="7193,31259 121038,31259 121038,31366 7193,31366 "/>
  <polygon class="fil0" points="7193,36951 121038,36951 121038,37058 7193,37058 "/>
  <polygon class="fil0" points="7193,39851 121038,39851 121038,39958 7193,39958 "/>
  <polygon class="fil0" points="7193,45543 121038,45543 121038,45650 7193,45650 "/>
  <polygon class="fil0" points="7193,48443 121038,48443 121038,48550 7193,48550 "/>
  <polygon class="fil0" points="7193,54135 121038,54135 121038,54242 7193,54242 "/>
  <polygon class="fil0" points="7193,65627 121038,65627 121038,65734 7193,65734 "/>
  <polygon class="fil0" points="7193,71319 121038,71319 121038,71426 7193,71426 "/>
  <polygon class="fil0" points="7408,5482 7408,77226 7193,77226 7193,5482 "/>
  <polygon class="fil0" points="121038,5482 121038,77226 120930,77226 120930,5482 "/>
  <polygon class="fil0" points="7193,5482 121038,5482 121038,5590 7193,5590 "/>
  <polygon class="fil0" points="7193,77011 121038,77011 121038,77226 7193,77226 "/>
  <g transform="matrix(0.999999 0 0 0.999999 -56897.9 -32856)">
   <text x="64950" y="40594"  class="fil1 fnt0">序</text>
   <text x="67195" y="40594"  class="fil1 fnt0">号</text>
  </g>
  <g transform="matrix(0.999999 0 0 0.999999 -34128.9 -32856)">
   <text x="64950" y="40594"  class="fil1 fnt0">项</text>
   <text x="67195" y="40594"  class="fil1 fnt0">目</text>
   <text x="69439" y="40594"  class="fil1 fnt0">名</text>
   <text x="71684" y="40594"  class="fil1 fnt0">称</text>
  </g>
  <g transform="matrix(0.999999 0 0 0.999999 -6741.76 -32856)">
   <text x="64950" y="40594"  class="fil1 fnt0">经</text>
   <text x="67195" y="40594"  class="fil1 fnt0">费</text>
  </g>
  <g transform="matrix(0.999999 0 0 0.999999 -190.34 -32856)">
   <text x="64950" y="40594"  class="fil1 fnt0">完</text>
   <text x="67195" y="40594"  class="fil1 fnt0">成</text>
   <text x="69439" y="40594"  class="fil1 fnt0">时</text>
   <text x="71684" y="40594"  class="fil1 fnt0">间</text>
  </g>
  <g transform="matrix(0.999999 0 0 0.999999 20430.6 -32856)">
   <text x="64950" y="40594"  class="fil1 fnt0">项</text>
   <text x="67195" y="40594"  class="fil1 fnt0">目</text>
   <text x="69439" y="40594"  class="fil1 fnt0">来</text>
   <text x="71684" y="40594"  class="fil1 fnt0">源</text>
  </g>
  <g transform="matrix(0.999999 0 0 0.999999 44703.2 -32856)">
   <text x="64950" y="40594"  class="fil1 fnt0">主</text>
   <text x="67195" y="40594"  class="fil1 fnt0">持</text>
   <text x="69439" y="40594"  class="fil1 fnt0">人</text>
  </g>
  <g transform="matrix(0.999999 0 0 0.999999 -55286.9 -29956.1)">
   <text x="64950" y="40594"  class="fil1 fnt1">1</text>
  </g>
  <g transform="matrix(0.999999 0 0 0.999999 -51527.8 -29956.1)">
   <text x="64950" y="40594"  class="fil1 fnt2">阿</text>
   <text x="67195" y="40594"  class="fil1 fnt2">里</text>
   <text x="69439" y="40594"  class="fil1 fnt2">狮</text>
   <text x="71684" y="40594"  class="fil1 fnt2">泉</text>
   <text x="73929" y="40594"  class="fil1 fnt2">河</text>
   <text x="76173" y="40594"  class="fil1 fnt2">镇</text>
   <text x="78418" y="40594"  class="fil1 fnt2">风</text>
   <text x="80663" y="40594"  class="fil1 fnt2">沙</text>
   <text x="82907" y="40594"  class="fil1 fnt2">防</text>
   <text x="85152" y="40594"  class="fil1 fnt2">治</text>
   <text x="87397" y="40594"  class="fil1 fnt2">一</text>
   <text x="89641" y="40594"  class="fil1 fnt2">期</text>
   <text x="91886" y="40594"  class="fil1 fnt2">规</text>
   <text x="94131" y="40594"  class="fil1 fnt2">划</text>
  </g>
  <g transform="matrix(0.999999 0 0 0.999999 -5667.77 -29956.1)">
   <text x="64950" y="40594"  class="fil1 fnt1">2</text>
   <text x="66076" y="40594"  class="fil1 fnt1">0</text>
  </g>
  <g transform="matrix(0.999999 0 0 0.999999 561.496 -29956.1)">
   <text x="64950" y="40594"  class="fil1 fnt1">1</text>
   <text x="66076" y="40594"  class="fil1 fnt1">9</text>
   <text x="67203" y="40594"  class="fil1 fnt1">8</text>
   <text x="68329" y="40594"  class="fil1 fnt1">9</text>
   <text x="69456" y="40594"  class="fil1 fnt1">.</text>
   <text x="70063" y="40594"  class="fil1 fnt1">1</text>
   <text x="71190" y="40594"  class="fil1 fnt1">2</text>
  </g>
  <g transform="matrix(0.999999 0 0 0.999999 9690.54 -29956.1)">
   <text x="64950" y="40594"  class="fil1 fnt2">阿</text>
   <text x="67195" y="40594"  class="fil1 fnt2">里</text>
   <text x="69439" y="40594"  class="fil1 fnt2">行</text>
   <text x="71684" y="40594"  class="fil1 fnt2">署</text>
  </g>
  <g transform="matrix(0.999999 0 0 0.999999 40192.3 -29956.1)">
   <text x="64950" y="40594"  class="fil1 fnt2">曲</text>
   <text x="67195" y="40594"  class="fil1 fnt2">耀</text>
   <text x="69439" y="40594"  class="fil1 fnt2">光</text>
  </g>
  <g transform="matrix(0.999999 0 0 0.999999 -55286.9 -25660.1)">
   <text x="64950" y="40594"  class="fil1 fnt1">2</text>
  </g>
  <g transform="matrix(0.999999 0 0 0.999999 -51527.8 -27163.7)">
   <text x="64950" y="40594"  class="fil1 fnt2">雅</text>
   <text x="67195" y="40594"  class="fil1 fnt2">鲁</text>
   <text x="69439" y="40594"  class="fil1 fnt2">藏</text>
   <text x="71684" y="40594"  class="fil1 fnt2">布</text>
   <text x="73929" y="40594"  class="fil1 fnt2">江</text>
   <text x="76173" y="40594"  class="fil1 fnt2">河</text>
   <text x="78418" y="40594"  class="fil1 fnt2">谷</text>
   <text x="80663" y="40594"  class="fil1 fnt2">风</text>
   <text x="82907" y="40594"  class="fil1 fnt2">沙</text>
   <text x="85152" y="40594"  class="fil1 fnt2">地</text>
   <text x="87397" y="40594"  class="fil1 fnt2">貌</text>
   <text x="89641" y="40594"  class="fil1 fnt2">形</text>
   <text x="91886" y="40594"  class="fil1 fnt2">成</text>
   <text x="94131" y="40594"  class="fil1 fnt2">发</text>
   <text x="96375" y="40594"  class="fil1 fnt2">育</text>
   <text x="98620" y="40594"  class="fil1 fnt2">与</text>
   <text x="100865" y="40594"  class="fil1 fnt2">高</text>
   <text x="103109" y="40594"  class="fil1 fnt2">原</text>
   <text x="105354" y="40594"  class="fil1 fnt2">季</text>
  </g>
  <g transform="matrix(0.999999 0 0 0.999999 -51527.8 -24263.9)">
   <text x="64950" y="40594"  class="fil1 fnt2">风</text>
   <text x="67195" y="40594"  class="fil1 fnt2">的</text>
   <text x="69439" y="40594"  class="fil1 fnt2">盛</text>
   <text x="71684" y="40594"  class="fil1 fnt2">衰</text>
   <text x="73929" y="40594"  class="fil1 fnt2">变</text>
   <text x="76173" y="40594"  class="fil1 fnt2">化</text>
  </g>
  <g transform="matrix(0.999999 0 0 0.999999 -5667.77 -25660.1)">
   <text x="64950" y="40594"  class="fil1 fnt1">1</text>
   <text x="66076" y="40594"  class="fil1 fnt1">2</text>
  </g>
  <g transform="matrix(0.999999 0 0 0.999999 561.496 -25660.1)">
   <text x="64950" y="40594"  class="fil1 fnt1">1</text>
   <text x="66076" y="40594"  class="fil1 fnt1">9</text>
   <text x="67203" y="40594"  class="fil1 fnt1">9</text>
   <text x="68329" y="40594"  class="fil1 fnt1">8</text>
   <text x="69456" y="40594"  class="fil1 fnt1">.</text>
   <text x="70063" y="40594"  class="fil1 fnt1">1</text>
   <text x="71190" y="40594"  class="fil1 fnt1">2</text>
  </g>
  <g transform="matrix(0.999999 0 0 0.999999 9690.54 -25660.1)">
   <text x="64950" y="40594"  class="fil1 fnt2">国</text>
   <text x="67195" y="40594"  class="fil1 fnt2">家</text>
   <text x="69439" y="40594"  class="fil1 fnt2">基</text>
   <text x="71684" y="40594"  class="fil1 fnt2">金</text>
   <text x="73929" y="40594"  class="fil1 fnt2">委</text>
  </g>
  <g transform="matrix(0.999999 0 0 0.999999 40192.3 -25660.1)">
   <text x="64950" y="40594"  class="fil1 fnt2">李</text>
   <text x="67195" y="40594"  class="fil1 fnt2">森</text>
  </g>
  <g transform="matrix(0.999999 0 0 0.999999 -55286.9 -18571.7)">
   <text x="64950" y="40594"  class="fil1 fnt1">3</text>
  </g>
  <g transform="matrix(0.999999 0 0 0.999999 -51527.8 -19967.9)">
   <text x="64950" y="40594"  class="fil1 fnt2">西</text>
   <text x="67195" y="40594"  class="fil1 fnt2">藏</text>
  </g>
  <g transform="matrix(0.999999 0 0 0.999999 -47339.2 -19967.9)">
   <text x="64950" y="40594"  class="fil1 fnt2">‘</text>
  </g>
  <g transform="matrix(0.999999 0 0 0.999999 -45298.6 -19967.9)">
   <text x="64950" y="40594"  class="fil1 fnt2">一</text>
   <text x="67195" y="40594"  class="fil1 fnt2">江</text>
   <text x="69439" y="40594"  class="fil1 fnt2">两</text>
   <text x="71684" y="40594"  class="fil1 fnt2">河</text>
  </g>
  <g transform="matrix(0.999999 0 0 0.999999 -37028.8 -19967.9)">
   <text x="64950" y="40594"  class="fil1 fnt2">’</text>
  </g>
  <g transform="matrix(0.999999 0 0 0.999999 -34988.1 -19967.9)">
   <text x="64950" y="40594"  class="fil1 fnt2">地</text>
   <text x="67195" y="40594"  class="fil1 fnt2">区</text>
   <text x="69439" y="40594"  class="fil1 fnt2">沙</text>
   <text x="71684" y="40594"  class="fil1 fnt2">漠</text>
   <text x="73929" y="40594"  class="fil1 fnt2">化</text>
   <text x="76173" y="40594"  class="fil1 fnt2">成</text>
   <text x="78418" y="40594"  class="fil1 fnt2">因</text>
  </g>
  <g transform="matrix(0.999999 0 0 0.999999 -20596.4 -19967.9)">
   <text x="64950" y="40594"  class="fil1 fnt2">、</text>
  </g>
  <g transform="matrix(0.999999 0 0 0.999999 -18555.8 -19967.9)">
   <text x="64950" y="40594"  class="fil1 fnt2">趋</text>
   <text x="67195" y="40594"  class="fil1 fnt2">势</text>
   <text x="69439" y="40594"  class="fil1 fnt2">及</text>
   <text x="71684" y="40594"  class="fil1 fnt2">整</text>
  </g>
  <g transform="matrix(0.999999 0 0 0.999999 -51527.8 -17068.1)">
   <text x="64950" y="40594"  class="fil1 fnt2">治</text>
   <text x="67195" y="40594"  class="fil1 fnt2">对</text>
   <text x="69439" y="40594"  class="fil1 fnt2">策</text>
   <text x="71684" y="40594"  class="fil1 fnt2">研</text>
   <text x="73929" y="40594"  class="fil1 fnt2">究</text>
  </g>
  <g transform="matrix(0.999999 0 0 0.999999 -5667.77 -18571.7)">
   <text x="64950" y="40594"  class="fil1 fnt1">1</text>
   <text x="66076" y="40594"  class="fil1 fnt1">0</text>
  </g>
  <g transform="matrix(0.999999 0 0 0.999999 1850.31 -18571.7)">
   <text x="64950" y="40594"  class="fil1 fnt1">1</text>
   <text x="66076" y="40594"  class="fil1 fnt1">9</text>
   <text x="67203" y="40594"  class="fil1 fnt1">9</text>
   <text x="68329" y="40594"  class="fil1 fnt1">3</text>
  </g>
  <g transform="matrix(0.999999 0 0 0.999999 9690.54 -21364.1)">
   <text x="64950" y="40594"  class="fil1 fnt2">西</text>
   <text x="67195" y="40594"  class="fil1 fnt2">藏</text>
   <text x="69439" y="40594"  class="fil1 fnt2">自</text>
   <text x="71684" y="40594"  class="fil1 fnt2">治</text>
   <text x="73929" y="40594"  class="fil1 fnt2">区</text>
  </g>
  <g transform="matrix(0.999999 0 0 0.999999 20430.6 -21364.1)">
   <text x="64950" y="40594"  class="fil1 fnt2">“</text>
  </g>
  <g transform="matrix(0.999999 0 0 0.999999 22578.6 -21364.1)">
   <text x="64950" y="40594"  class="fil1 fnt2">一</text>
   <text x="67195" y="40594"  class="fil1 fnt2">江</text>
   <text x="69439" y="40594"  class="fil1 fnt2">两</text>
   <text x="71684" y="40594"  class="fil1 fnt2">河</text>
  </g>
  <g transform="matrix(0.999999 0 0 0.999999 31170.7 -21364.1)">
   <text x="64950" y="40594"  class="fil1 fnt2">”</text>
  </g>
  <g transform="matrix(0.999999 0 0 0.999999 33318.7 -21364.1)">
   <text x="64950" y="40594"  class="fil1 fnt2">流</text>
   <text x="67195" y="40594"  class="fil1 fnt2">域</text>
   <text x="69439" y="40594"  class="fil1 fnt2">开</text>
  </g>
  <g transform="matrix(0.999999 0 0 0.999999 9690.54 -18464.3)">
   <text x="64950" y="40594"  class="fil1 fnt2">发</text>
   <text x="67195" y="40594"  class="fil1 fnt2">建</text>
   <text x="69439" y="40594"  class="fil1 fnt2">设</text>
   <text x="71684" y="40594"  class="fil1 fnt2">委</text>
   <text x="73929" y="40594"  class="fil1 fnt2">员</text>
   <text x="76173" y="40594"  class="fil1 fnt2">会</text>
   <text x="78418" y="40594"  class="fil1 fnt2">办</text>
   <text x="80663" y="40594"  class="fil1 fnt2">公</text>
   <text x="82907" y="40594"  class="fil1 fnt2">室</text>
  </g>
  <g transform="matrix(0.999999 0 0 0.999999 29022.7 -18464.3)">
   <text x="64950" y="40594"  class="fil1 fnt2">、</text>
  </g>
  <g transform="matrix(0.999999 0 0 0.999999 31170.7 -18464.3)">
   <text x="64950" y="40594"  class="fil1 fnt2">西</text>
   <text x="67195" y="40594"  class="fil1 fnt2">藏</text>
   <text x="69439" y="40594"  class="fil1 fnt2">自</text>
   <text x="71684" y="40594"  class="fil1 fnt2">治</text>
  </g>
  <g transform="matrix(0.999999 0 0 0.999999 9690.54 -15671.9)">
   <text x="64950" y="40594"  class="fil1 fnt2">区</text>
   <text x="67195" y="40594"  class="fil1 fnt2">林</text>
   <text x="69439" y="40594"  class="fil1 fnt2">业</text>
   <text x="71684" y="40594"  class="fil1 fnt2">局</text>
  </g>
  <g transform="matrix(0.999999 0 0 0.999999 40192.3 -18571.7)">
   <text x="64950" y="40594"  class="fil1 fnt2">董</text>
   <text x="67195" y="40594"  class="fil1 fnt2">光</text>
   <text x="69439" y="40594"  class="fil1 fnt2">荣</text>
  </g>
  <g transform="matrix(0.999999 0 0 0.999999 -55286.9 -12772)">
   <text x="64950" y="40594"  class="fil1 fnt1">4</text>
  </g>
  <g transform="matrix(0.999999 0 0 0.999999 -51527.8 -12772)">
   <text x="64950" y="40594"  class="fil1 fnt2">西</text>
   <text x="67195" y="40594"  class="fil1 fnt2">藏</text>
   <text x="69439" y="40594"  class="fil1 fnt2">沙</text>
   <text x="71684" y="40594"  class="fil1 fnt2">漠</text>
   <text x="73929" y="40594"  class="fil1 fnt2">化</text>
   <text x="76173" y="40594"  class="fil1 fnt2">普</text>
   <text x="78418" y="40594"  class="fil1 fnt2">查</text>
  </g>
  <g transform="matrix(0.999999 0 0 0.999999 -5667.77 -12772)">
   <text x="64950" y="40594"  class="fil1 fnt1">3</text>
   <text x="66076" y="40594"  class="fil1 fnt1">0</text>
  </g>
  <g transform="matrix(0.999999 0 0 0.999999 -512.533 -12772)">
   <text x="64950" y="40594"  class="fil1 fnt1">1</text>
   <text x="66076" y="40594"  class="fil1 fnt1">9</text>
   <text x="67203" y="40594"  class="fil1 fnt1">9</text>
   <text x="68329" y="40594"  class="fil1 fnt1">6</text>
  </g>
  <g transform="matrix(0.999999 0 0 0.999999 3783.5 -12772)">
   <text x="64950" y="40594"  class="fil1 fnt1">-</text>
  </g>
  <g transform="matrix(0.999999 0 0 0.999999 4427.93 -12772)">
   <text x="64950" y="40594"  class="fil1 fnt1">1</text>
   <text x="66076" y="40594"  class="fil1 fnt1">9</text>
   <text x="67203" y="40594"  class="fil1 fnt1">9</text>
   <text x="68329" y="40594"  class="fil1 fnt1">8</text>
  </g>
  <g transform="matrix(0.999999 0 0 0.999999 9690.54 -12772)">
   <text x="64950" y="40594"  class="fil1 fnt2">国</text>
   <text x="67195" y="40594"  class="fil1 fnt2">家</text>
   <text x="69439" y="40594"  class="fil1 fnt2">林</text>
   <text x="71684" y="40594"  class="fil1 fnt2">业</text>
   <text x="73929" y="40594"  class="fil1 fnt2">局</text>
  </g>
  <g transform="matrix(0.999999 0 0 0.999999 40192.3 -12772)">
   <text x="64950" y="40594"  class="fil1 fnt2">董</text>
   <text x="67195" y="40594"  class="fil1 fnt2">光</text>
   <text x="69439" y="40594"  class="fil1 fnt2">荣</text>
  </g>
  <g transform="matrix(0.999999 0 0 0.999999 -55286.9 -9979.6)">
   <text x="64950" y="40594"  class="fil1 fnt1">5</text>
  </g>
  <g transform="matrix(0.999999 0 0 0.999999 -51527.8 -9979.6)">
   <text x="64950" y="40594"  class="fil1 fnt2">西</text>
   <text x="67195" y="40594"  class="fil1 fnt2">藏</text>
   <text x="69439" y="40594"  class="fil1 fnt2">荒</text>
   <text x="71684" y="40594"  class="fil1 fnt2">漠</text>
   <text x="73929" y="40594"  class="fil1 fnt2">化</text>
   <text x="76173" y="40594"  class="fil1 fnt2">监</text>
   <text x="78418" y="40594"  class="fil1 fnt2">测</text>
  </g>
  <g transform="matrix(0.999999 0 0 0.999999 -6204.75 -9979.6)">
   <text x="64950" y="40594"  class="fil1 fnt1">1</text>
   <text x="66076" y="40594"  class="fil1 fnt1">0</text>
   <text x="67203" y="40594"  class="fil1 fnt1">4</text>
  </g>
  <g transform="matrix(0.999999 0 0 0.999999 -512.533 -9979.6)">
   <text x="64950" y="40594"  class="fil1 fnt1">2</text>
   <text x="66076" y="40594"  class="fil1 fnt1">0</text>
   <text x="67203" y="40594"  class="fil1 fnt1">0</text>
   <text x="68329" y="40594"  class="fil1 fnt1">0</text>
  </g>
  <g transform="matrix(0.999999 0 0 0.999999 3783.5 -9979.6)">
   <text x="64950" y="40594"  class="fil1 fnt1">-</text>
  </g>
  <g transform="matrix(0.999999 0 0 0.999999 4427.93 -9979.6)">
   <text x="64950" y="40594"  class="fil1 fnt1">2</text>
   <text x="66076" y="40594"  class="fil1 fnt1">0</text>
   <text x="67203" y="40594"  class="fil1 fnt1">0</text>
   <text x="68329" y="40594"  class="fil1 fnt1">1</text>
  </g>
  <g transform="matrix(0.999999 0 0 0.999999 9690.54 -9979.6)">
   <text x="64950" y="40594"  class="fil1 fnt2">国</text>
   <text x="67195" y="40594"  class="fil1 fnt2">家</text>
   <text x="69439" y="40594"  class="fil1 fnt2">林</text>
   <text x="71684" y="40594"  class="fil1 fnt2">业</text>
   <text x="73929" y="40594"  class="fil1 fnt2">局</text>
  </g>
  <g transform="matrix(0.999999 0 0 0.999999 40192.3 -9979.6)">
   <text x="64950" y="40594"  class="fil1 fnt2">李</text>
   <text x="67195" y="40594"  class="fil1 fnt2">森</text>
  </g>
  <g transform="matrix(0.999999 0 0 0.999999 44273.6 -9979.6)">
   <text x="64950" y="40594"  class="fil1 fnt2">、</text>
  </g>
  <g transform="matrix(0.999999 0 0 0.999999 46314.2 -9979.6)">
   <text x="64950" y="40594"  class="fil1 fnt2">杨</text>
   <text x="67195" y="40594"  class="fil1 fnt2">萍</text>
  </g>
  <g transform="matrix(0.999999 0 0 0.999999 -55286.9 -5683.57)">
   <text x="64950" y="40594"  class="fil1 fnt1">6</text>
  </g>
  <g transform="matrix(0.999999 0 0 0.999999 -51527.8 -5683.57)">
   <text x="64950" y="40594"  class="fil1 fnt2">西</text>
   <text x="67195" y="40594"  class="fil1 fnt2">藏</text>
   <text x="69439" y="40594"  class="fil1 fnt2">土</text>
   <text x="71684" y="40594"  class="fil1 fnt2">地</text>
   <text x="73929" y="40594"  class="fil1 fnt2">沙</text>
   <text x="76173" y="40594"  class="fil1 fnt2">漠</text>
   <text x="78418" y="40594"  class="fil1 fnt2">化</text>
   <text x="80663" y="40594"  class="fil1 fnt2">成</text>
   <text x="82907" y="40594"  class="fil1 fnt2">因</text>
   <text x="85152" y="40594"  class="fil1 fnt2">与</text>
   <text x="87397" y="40594"  class="fil1 fnt2">综</text>
   <text x="89641" y="40594"  class="fil1 fnt2">合</text>
   <text x="91886" y="40594"  class="fil1 fnt2">防</text>
   <text x="94131" y="40594"  class="fil1 fnt2">治</text>
  </g>
  <g transform="matrix(0.999999 0 0 0.999999 -5667.77 -5683.57)">
   <text x="64950" y="40594"  class="fil1 fnt1">9</text>
   <text x="66076" y="40594"  class="fil1 fnt1">0</text>
  </g>
  <g transform="matrix(0.999999 0 0 0.999999 -512.533 -5683.57)">
   <text x="64950" y="40594"  class="fil1 fnt1">2</text>
   <text x="66076" y="40594"  class="fil1 fnt1">0</text>
   <text x="67203" y="40594"  class="fil1 fnt1">0</text>
   <text x="68329" y="40594"  class="fil1 fnt1">1</text>
  </g>
  <g transform="matrix(0.999999 0 0 0.999999 3783.5 -5683.57)">
   <text x="64950" y="40594"  class="fil1 fnt1">-</text>
  </g>
  <g transform="matrix(0.999999 0 0 0.999999 4427.93 -5683.57)">
   <text x="64950" y="40594"  class="fil1 fnt1">2</text>
   <text x="66076" y="40594"  class="fil1 fnt1">0</text>
   <text x="67203" y="40594"  class="fil1 fnt1">0</text>
   <text x="68329" y="40594"  class="fil1 fnt1">3</text>
  </g>
  <g transform="matrix(0.999999 0 0 0.999999 9690.54 -5683.57)">
   <text x="64950" y="40594"  class="fil1 fnt2">西</text>
   <text x="67195" y="40594"  class="fil1 fnt2">藏</text>
   <text x="69439" y="40594"  class="fil1 fnt2">自</text>
   <text x="71684" y="40594"  class="fil1 fnt2">治</text>
   <text x="73929" y="40594"  class="fil1 fnt2">区</text>
   <text x="76173" y="40594"  class="fil1 fnt2">科</text>
   <text x="78418" y="40594"  class="fil1 fnt2">技</text>
   <text x="80663" y="40594"  class="fil1 fnt2">厅</text>
  </g>
  <g transform="matrix(0.999999 0 0 0.999999 40192.3 -7079.79)">
   <text x="64950" y="40594"  class="fil1 fnt2">董</text>
   <text x="67195" y="40594"  class="fil1 fnt2">光</text>
   <text x="69439" y="40594"  class="fil1 fnt2">荣</text>
  </g>
  <g transform="matrix(0.999999 0 0 0.999999 46958.6 -7079.79)">
   <text x="64950" y="40594"  class="fil1 fnt2">、</text>
  </g>
  <g transform="matrix(0.999999 0 0 0.999999 49214 -7079.79)">
   <text x="64950" y="40594"  class="fil1 fnt2">杨</text>
   <text x="67195" y="40594"  class="fil1 fnt2">萍</text>
  </g>
  <g transform="matrix(0.999999 0 0 0.999999 53724.8 -7079.79)">
   <text x="64950" y="40594"  class="fil1 fnt2">、</text>
  </g>
  <g transform="matrix(0.999999 0 0 0.999999 40192.3 -4179.97)">
   <text x="64950" y="40594"  class="fil1 fnt2">李</text>
   <text x="67195" y="40594"  class="fil1 fnt2">森</text>
  </g>
  <g transform="matrix(0.999999 0 0 0.999999 -55286.9 -1387.57)">
   <text x="64950" y="40594"  class="fil1 fnt1">7</text>
  </g>
  <g transform="matrix(0.999999 0 0 0.999999 -51527.8 -1387.57)">
   <text x="64950" y="40594"  class="fil1 fnt2">西</text>
   <text x="67195" y="40594"  class="fil1 fnt2">藏</text>
   <text x="69439" y="40594"  class="fil1 fnt2">沙</text>
   <text x="71684" y="40594"  class="fil1 fnt2">漠</text>
   <text x="73929" y="40594"  class="fil1 fnt2">化</text>
   <text x="76173" y="40594"  class="fil1 fnt2">土</text>
   <text x="78418" y="40594"  class="fil1 fnt2">地</text>
   <text x="80663" y="40594"  class="fil1 fnt2">防</text>
   <text x="82907" y="40594"  class="fil1 fnt2">治</text>
   <text x="85152" y="40594"  class="fil1 fnt2">规</text>
   <text x="87397" y="40594"  class="fil1 fnt2">划</text>
  </g>
  <g transform="matrix(0.999999 0 0 0.999999 -5130.76 -1387.57)">
   <text x="64950" y="40594"  class="fil1 fnt1">8</text>
  </g>
  <g transform="matrix(0.999999 0 0 0.999999 1850.31 -1387.57)">
   <text x="64950" y="40594"  class="fil1 fnt1">1</text>
   <text x="66076" y="40594"  class="fil1 fnt1">9</text>
   <text x="67203" y="40594"  class="fil1 fnt1">9</text>
   <text x="68329" y="40594"  class="fil1 fnt1">7</text>
  </g>
  <g transform="matrix(0.999999 0 0 0.999999 9690.54 -1387.57)">
   <text x="64950" y="40594"  class="fil1 fnt2">西</text>
   <text x="67195" y="40594"  class="fil1 fnt2">藏</text>
   <text x="69439" y="40594"  class="fil1 fnt2">自</text>
   <text x="71684" y="40594"  class="fil1 fnt2">治</text>
   <text x="73929" y="40594"  class="fil1 fnt2">区</text>
   <text x="76173" y="40594"  class="fil1 fnt2">发</text>
   <text x="78418" y="40594"  class="fil1 fnt2">展</text>
   <text x="80663" y="40594"  class="fil1 fnt2">与</text>
   <text x="82907" y="40594"  class="fil1 fnt2">改</text>
   <text x="85152" y="40594"  class="fil1 fnt2">革</text>
   <text x="87397" y="40594"  class="fil1 fnt2">委</text>
   <text x="89641" y="40594"  class="fil1 fnt2">员</text>
   <text x="91886" y="40594"  class="fil1 fnt2">会</text>
  </g>
  <g transform="matrix(0.999999 0 0 0.999999 40192.3 -1387.57)">
   <text x="64950" y="40594"  class="fil1 fnt2">董</text>
   <text x="67195" y="40594"  class="fil1 fnt2">光</text>
   <text x="69439" y="40594"  class="fil1 fnt2">荣</text>
  </g>
  <g transform="matrix(0.999999 0 0 0.999999 46314.2 -1387.57)">
   <text x="64950" y="40594"  class="fil1 fnt1">,</text>
  </g>
  <g transform="matrix(0.999999 0 0 0.999999 47173.4 -1387.57)">
   <text x="64950" y="40594"  class="fil1 fnt2">李</text>
   <text x="67195" y="40594"  class="fil1 fnt2">森</text>
  </g>
  <g transform="matrix(0.999999 0 0 0.999999 -55286.9 1512.28)">
   <text x="64950" y="40594"  class="fil1 fnt1">8</text>
  </g>
  <g transform="matrix(0.999999 0 0 0.999999 -51527.8 1512.28)">
   <text x="64950" y="40594"  class="fil1 fnt2">“</text>
  </g>
  <g transform="matrix(0.999999 0 0 0.999999 -49487.2 1512.28)">
   <text x="64950" y="40594"  class="fil1 fnt2">八</text>
   <text x="67195" y="40594"  class="fil1 fnt2">－</text>
   <text x="69439" y="40594"  class="fil1 fnt2">邛</text>
  </g>
  <g transform="matrix(0.999999 0 0 0.999999 -43365.4 1512.28)">
   <text x="64950" y="40594"  class="fil1 fnt2">”</text>
  </g>
  <g transform="matrix(0.999999 0 0 0.999999 -41324.8 1512.28)">
   <text x="64950" y="40594"  class="fil1 fnt2">公</text>
   <text x="67195" y="40594"  class="fil1 fnt2">路</text>
   <text x="69439" y="40594"  class="fil1 fnt2">沙</text>
   <text x="71684" y="40594"  class="fil1 fnt2">害</text>
   <text x="73929" y="40594"  class="fil1 fnt2">治</text>
   <text x="76173" y="40594"  class="fil1 fnt2">理</text>
   <text x="78418" y="40594"  class="fil1 fnt2">研</text>
   <text x="80663" y="40594"  class="fil1 fnt2">究</text>
  </g>
  <g transform="matrix(0.999999 0 0 0.999999 -7063.95 1512.28)">
   <text x="64950" y="40594"  class="fil1 fnt1">2</text>
   <text x="66076" y="40594"  class="fil1 fnt1">1</text>
   <text x="67203" y="40594"  class="fil1 fnt1">.</text>
   <text x="67810" y="40594"  class="fil1 fnt1">5</text>
   <text x="68937" y="40594"  class="fil1 fnt1">3</text>
  </g>
  <g transform="matrix(0.999999 0 0 0.999999 1850.31 1512.28)">
   <text x="64950" y="40594"  class="fil1 fnt1">1</text>
   <text x="66076" y="40594"  class="fil1 fnt1">9</text>
   <text x="67203" y="40594"  class="fil1 fnt1">9</text>
   <text x="68329" y="40594"  class="fil1 fnt1">7</text>
  </g>
  <g transform="matrix(0.999999 0 0 0.999999 9690.54 1512.28)">
   <text x="64950" y="40594"  class="fil1 fnt2">西</text>
   <text x="67195" y="40594"  class="fil1 fnt2">藏</text>
   <text x="69439" y="40594"  class="fil1 fnt2">自</text>
   <text x="71684" y="40594"  class="fil1 fnt2">治</text>
   <text x="73929" y="40594"  class="fil1 fnt2">区</text>
   <text x="76173" y="40594"  class="fil1 fnt2">交</text>
   <text x="78418" y="40594"  class="fil1 fnt2">通</text>
   <text x="80663" y="40594"  class="fil1 fnt2">厅</text>
  </g>
  <g transform="matrix(0.999999 0 0 0.999999 40192.3 1512.28)">
   <text x="64950" y="40594"  class="fil1 fnt2">董</text>
   <text x="67195" y="40594"  class="fil1 fnt2">光</text>
   <text x="69439" y="40594"  class="fil1 fnt2">荣</text>
  </g>
  <g transform="matrix(0.999999 0 0 0.999999 -55286.9 4412.09)">
   <text x="64950" y="40594"  class="fil1 fnt1">9</text>
  </g>
  <g transform="matrix(0.999999 0 0 0.999999 -51527.8 4412.09)">
   <text x="64950" y="40594"  class="fil1 fnt2">青</text>
   <text x="67195" y="40594"  class="fil1 fnt2">藏</text>
   <text x="69439" y="40594"  class="fil1 fnt2">高</text>
   <text x="71684" y="40594"  class="fil1 fnt2">原</text>
   <text x="73929" y="40594"  class="fil1 fnt2">土</text>
   <text x="76173" y="40594"  class="fil1 fnt2">地</text>
   <text x="78418" y="40594"  class="fil1 fnt2">沙</text>
   <text x="80663" y="40594"  class="fil1 fnt2">漠</text>
   <text x="82907" y="40594"  class="fil1 fnt2">化</text>
   <text x="85152" y="40594"  class="fil1 fnt2">问</text>
   <text x="87397" y="40594"  class="fil1 fnt2">题</text>
   <text x="89641" y="40594"  class="fil1 fnt2">与</text>
   <text x="91886" y="40594"  class="fil1 fnt2">可</text>
   <text x="94131" y="40594"  class="fil1 fnt2">持</text>
   <text x="96375" y="40594"  class="fil1 fnt2">续</text>
   <text x="98620" y="40594"  class="fil1 fnt2">发</text>
   <text x="100865" y="40594"  class="fil1 fnt2">展</text>
   <text x="103109" y="40594"  class="fil1 fnt2">研</text>
   <text x="105354" y="40594"  class="fil1 fnt2">究</text>
  </g>
  <g transform="matrix(0.999999 0 0 0.999999 -5130.76 4412.09)">
   <text x="64950" y="40594"  class="fil1 fnt1">3</text>
  </g>
  <g transform="matrix(0.999999 0 0 0.999999 1850.31 4412.09)">
   <text x="64950" y="40594"  class="fil1 fnt1">1</text>
   <text x="66076" y="40594"  class="fil1 fnt1">9</text>
   <text x="67203" y="40594"  class="fil1 fnt1">9</text>
   <text x="68329" y="40594"  class="fil1 fnt1">9</text>
  </g>
  <g transform="matrix(0.999999 0 0 0.999999 9690.54 4412.09)">
   <text x="64950" y="40594"  class="fil1 fnt2">中</text>
   <text x="67195" y="40594"  class="fil1 fnt2">国</text>
   <text x="69439" y="40594"  class="fil1 fnt2">藏</text>
   <text x="71684" y="40594"  class="fil1 fnt2">学</text>
   <text x="73929" y="40594"  class="fil1 fnt2">研</text>
   <text x="76173" y="40594"  class="fil1 fnt2">究</text>
   <text x="78418" y="40594"  class="fil1 fnt2">中</text>
   <text x="80663" y="40594"  class="fil1 fnt2">心</text>
  </g>
  <g transform="matrix(0.999999 0 0 0.999999 40192.3 4412.09)">
   <text x="64950" y="40594"  class="fil1 fnt2">李</text>
   <text x="67195" y="40594"  class="fil1 fnt2">森</text>
  </g>
  <g transform="matrix(0.999999 0 0 0.999999 -55823.9 7204.5)">
   <text x="64950" y="40594"  class="fil1 fnt1">1</text>
   <text x="66076" y="40594"  class="fil1 fnt1">0</text>
  </g>
  <g transform="matrix(0.999999 0 0 0.999999 -51527.8 7204.5)">
   <text x="64950" y="40594"  class="fil1 fnt2">那</text>
   <text x="67195" y="40594"  class="fil1 fnt2">曲</text>
   <text x="69439" y="40594"  class="fil1 fnt2">才</text>
   <text x="71684" y="40594"  class="fil1 fnt2">曲</text>
   <text x="73929" y="40594"  class="fil1 fnt2">塘</text>
   <text x="76173" y="40594"  class="fil1 fnt2">草</text>
   <text x="78418" y="40594"  class="fil1 fnt2">地</text>
   <text x="80663" y="40594"  class="fil1 fnt2">畜</text>
   <text x="82907" y="40594"  class="fil1 fnt2">牧</text>
   <text x="85152" y="40594"  class="fil1 fnt2">业</text>
   <text x="87397" y="40594"  class="fil1 fnt2">科</text>
   <text x="89641" y="40594"  class="fil1 fnt2">技</text>
   <text x="91886" y="40594"  class="fil1 fnt2">示</text>
   <text x="94131" y="40594"  class="fil1 fnt2">范</text>
   <text x="96375" y="40594"  class="fil1 fnt2">园</text>
   <text x="98620" y="40594"  class="fil1 fnt2">区</text>
   <text x="100865" y="40594"  class="fil1 fnt2">规</text>
   <text x="103109" y="40594"  class="fil1 fnt2">划</text>
  </g>
  <g transform="matrix(0.999999 0 0 0.999999 -5667.77 7204.5)">
   <text x="64950" y="40594"  class="fil1 fnt1">1</text>
   <text x="66076" y="40594"  class="fil1 fnt1">5</text>
  </g>
  <g transform="matrix(0.999999 0 0 0.999999 1850.31 7204.5)">
   <text x="64950" y="40594"  class="fil1 fnt1">2</text>
   <text x="66076" y="40594"  class="fil1 fnt1">0</text>
   <text x="67203" y="40594"  class="fil1 fnt1">0</text>
   <text x="68329" y="40594"  class="fil1 fnt1">2</text>
  </g>
  <g transform="matrix(0.999999 0 0 0.999999 9690.54 7204.5)">
   <text x="64950" y="40594"  class="fil1 fnt2">那</text>
   <text x="67195" y="40594"  class="fil1 fnt2">曲</text>
   <text x="69439" y="40594"  class="fil1 fnt2">行</text>
   <text x="71684" y="40594"  class="fil1 fnt2">署</text>
  </g>
  <g transform="matrix(0.999999 0 0 0.999999 40192.3 7204.5)">
   <text x="64950" y="40594"  class="fil1 fnt2">魏</text>
   <text x="67195" y="40594"  class="fil1 fnt2">兴</text>
   <text x="69439" y="40594"  class="fil1 fnt2">琥</text>
  </g>
  <g transform="matrix(0.999999 0 0 0.999999 -55823.9 11500.5)">
   <text x="64950" y="40594"  class="fil1 fnt1">1</text>
   <text x="66076" y="40594"  class="fil1 fnt1">1</text>
  </g>
  <g transform="matrix(0.999999 0 0 0.999999 -51527.8 10104.3)">
   <text x="64950" y="40594"  class="fil1 fnt2">国</text>
   <text x="67195" y="40594"  class="fil1 fnt2">家</text>
   <text x="69439" y="40594"  class="fil1 fnt2">林</text>
   <text x="71684" y="40594"  class="fil1 fnt2">业</text>
   <text x="73929" y="40594"  class="fil1 fnt2">局</text>
   <text x="76173" y="40594"  class="fil1 fnt2">防</text>
   <text x="78418" y="40594"  class="fil1 fnt2">沙</text>
   <text x="80663" y="40594"  class="fil1 fnt2">治</text>
   <text x="82907" y="40594"  class="fil1 fnt2">沙</text>
   <text x="85152" y="40594"  class="fil1 fnt2">综</text>
   <text x="87397" y="40594"  class="fil1 fnt2">合</text>
   <text x="89641" y="40594"  class="fil1 fnt2">示</text>
   <text x="91886" y="40594"  class="fil1 fnt2">范</text>
   <text x="94131" y="40594"  class="fil1 fnt2">区</text>
  </g>
  <g transform="matrix(0.999999 0 0 0.999999 -22529.7 10104.3)">
   <text x="64950" y="40594"  class="fil1 fnt1">—</text>
  </g>
  <g transform="matrix(0.999999 0 0 0.999999 -20596.4 10104.3)">
   <text x="64950" y="40594"  class="fil1 fnt2">西</text>
   <text x="67195" y="40594"  class="fil1 fnt2">藏</text>
   <text x="69439" y="40594"  class="fil1 fnt2">山</text>
   <text x="71684" y="40594"  class="fil1 fnt2">南</text>
   <text x="73929" y="40594"  class="fil1 fnt2">地</text>
  </g>
  <g transform="matrix(0.999999 0 0 0.999999 -51527.8 13004.1)">
   <text x="64950" y="40594"  class="fil1 fnt2">区</text>
   <text x="67195" y="40594"  class="fil1 fnt2">防</text>
   <text x="69439" y="40594"  class="fil1 fnt2">沙</text>
   <text x="71684" y="40594"  class="fil1 fnt2">治</text>
   <text x="73929" y="40594"  class="fil1 fnt2">沙</text>
   <text x="76173" y="40594"  class="fil1 fnt2">综</text>
   <text x="78418" y="40594"  class="fil1 fnt2">合</text>
   <text x="80663" y="40594"  class="fil1 fnt2">示</text>
   <text x="82907" y="40594"  class="fil1 fnt2">范</text>
   <text x="85152" y="40594"  class="fil1 fnt2">区</text>
   <text x="87397" y="40594"  class="fil1 fnt2">规</text>
   <text x="89641" y="40594"  class="fil1 fnt2">划</text>
  </g>
  <g transform="matrix(0.999999 0 0 0.999999 -5130.76 11500.5)">
   <text x="64950" y="40594"  class="fil1 fnt1">5</text>
  </g>
  <g transform="matrix(0.999999 0 0 0.999999 1850.31 11500.5)">
   <text x="64950" y="40594"  class="fil1 fnt1">2</text>
   <text x="66076" y="40594"  class="fil1 fnt1">0</text>
   <text x="67203" y="40594"  class="fil1 fnt1">0</text>
   <text x="68329" y="40594"  class="fil1 fnt1">3</text>
  </g>
  <g transform="matrix(0.999999 0 0 0.999999 9690.54 11500.5)">
   <text x="64950" y="40594"  class="fil1 fnt2">山</text>
   <text x="67195" y="40594"  class="fil1 fnt2">南</text>
   <text x="69439" y="40594"  class="fil1 fnt2">地</text>
   <text x="71684" y="40594"  class="fil1 fnt2">区</text>
   <text x="73929" y="40594"  class="fil1 fnt2">林</text>
   <text x="76173" y="40594"  class="fil1 fnt2">业</text>
   <text x="78418" y="40594"  class="fil1 fnt2">局</text>
  </g>
  <g transform="matrix(0.999999 0 0 0.999999 40192.3 11500.5)">
   <text x="64950" y="40594"  class="fil1 fnt2">杨</text>
   <text x="67195" y="40594"  class="fil1 fnt2">萍</text>
  </g>
  <g transform="matrix(0.999999 0 0 0.999999 44273.6 11500.5)">
   <text x="64950" y="40594"  class="fil1 fnt2">、</text>
  </g>
  <g transform="matrix(0.999999 0 0 0.999999 46314.2 11500.5)">
   <text x="64950" y="40594"  class="fil1 fnt2">魏</text>
   <text x="67195" y="40594"  class="fil1 fnt2">兴</text>
   <text x="69439" y="40594"  class="fil1 fnt2">琥</text>
  </g>
  <g transform="matrix(0.999999 0 0 0.999999 -55823.9 17300.2)">
   <text x="64950" y="40594"  class="fil1 fnt1">1</text>
   <text x="66076" y="40594"  class="fil1 fnt1">2</text>
  </g>
  <g transform="matrix(1 0 0 1 -51527.9 15796.6)">
   <text x="64950" y="40594"  class="fil1 fnt2">那</text>
   <text x="67195" y="40594"  class="fil1 fnt2">曲</text>
   <text x="69439" y="40594"  class="fil1 fnt2">地</text>
   <text x="71684" y="40594"  class="fil1 fnt2">区</text>
   <text x="73929" y="40594"  class="fil1 fnt2">那</text>
   <text x="76173" y="40594"  class="fil1 fnt2">曲</text>
   <text x="78418" y="40594"  class="fil1 fnt2">县</text>
   <text x="80663" y="40594"  class="fil1 fnt2">农</text>
   <text x="82907" y="40594"  class="fil1 fnt2">业</text>
   <text x="85152" y="40594"  class="fil1 fnt2">综</text>
   <text x="87397" y="40594"  class="fil1 fnt2">合</text>
   <text x="89641" y="40594"  class="fil1 fnt2">开</text>
   <text x="91886" y="40594"  class="fil1 fnt2">发</text>
   <text x="94131" y="40594"  class="fil1 fnt2">土</text>
   <text x="96375" y="40594"  class="fil1 fnt2">地</text>
   <text x="98620" y="40594"  class="fil1 fnt2">治</text>
   <text x="100865" y="40594"  class="fil1 fnt2">理</text>
   <text x="103109" y="40594"  class="fil1 fnt2">项</text>
   <text x="105354" y="40594"  class="fil1 fnt2">目</text>
  </g>
  <g transform="matrix(0.999999 0 0 0.999999 -51527.8 18696.4)">
   <text x="64950" y="40594"  class="fil1 fnt2">规</text>
   <text x="67195" y="40594"  class="fil1 fnt2">划</text>
   <text x="69439" y="40594"  class="fil1 fnt2">与</text>
   <text x="71684" y="40594"  class="fil1 fnt2">设</text>
   <text x="73929" y="40594"  class="fil1 fnt2">计</text>
  </g>
  <g transform="matrix(0.999999 0 0 0.999999 -5130.76 17300.2)">
   <text x="64950" y="40594"  class="fil1 fnt1">8</text>
  </g>
  <g transform="matrix(0.999999 0 0 0.999999 1850.31 17300.2)">
   <text x="64950" y="40594"  class="fil1 fnt1">2</text>
   <text x="66076" y="40594"  class="fil1 fnt1">0</text>
   <text x="67203" y="40594"  class="fil1 fnt1">0</text>
   <text x="68329" y="40594"  class="fil1 fnt1">7</text>
  </g>
  <text x="74640" y="56746"  class="fil1 fnt2">西</text>
  <text x="76885" y="56746"  class="fil1 fnt2">藏</text>
  <text x="79130" y="56746"  class="fil1 fnt2">自</text>
  <text x="81375" y="56746"  class="fil1 fnt2">治</text>
  <text x="83619" y="56746"  class="fil1 fnt2">区</text>
  <text x="85864" y="56746"  class="fil1 fnt2">农</text>
  <text x="88109" y="56746"  class="fil1 fnt2">业</text>
  <text x="90353" y="56746"  class="fil1 fnt2">综</text>
  <text x="92598" y="56746"  class="fil1 fnt2">合</text>
  <text x="94843" y="56746"  class="fil1 fnt2">开</text>
  <text x="97087" y="56746"  class="fil1 fnt2">发</text>
  <text x="99332" y="56746"  class="fil1 fnt2">办</text>
  <text x="101577" y="56746"  class="fil1 fnt2">公</text>
  <text x="74640" y="58786"  class="fil1 fnt2">室</text>
  <g transform="matrix(0.999999 0 0 0.999999 40192.3 17300.2)">
   <text x="64950" y="40594"  class="fil1 fnt2">陈</text>
   <text x="67195" y="40594"  class="fil1 fnt2">怀</text>
   <text x="69439" y="40594"  class="fil1 fnt2">顺</text>
  </g>
  <g transform="matrix(0.999999 0 0 0.999999 -55823.9 22992.4)">
   <text x="64950" y="40594"  class="fil1 fnt1">1</text>
   <text x="66076" y="40594"  class="fil1 fnt1">3</text>
  </g>
  <g transform="matrix(0.999999 0 0 0.999999 -51527.8 21596.2)">
   <text x="64950" y="40594"  class="fil1 fnt2">那</text>
   <text x="67195" y="40594"  class="fil1 fnt2">曲</text>
   <text x="69439" y="40594"  class="fil1 fnt2">地</text>
   <text x="71684" y="40594"  class="fil1 fnt2">区</text>
   <text x="73929" y="40594"  class="fil1 fnt2">比</text>
   <text x="76173" y="40594"  class="fil1 fnt2">如</text>
   <text x="78418" y="40594"  class="fil1 fnt2">县</text>
   <text x="80663" y="40594"  class="fil1 fnt2">农</text>
   <text x="82907" y="40594"  class="fil1 fnt2">业</text>
   <text x="85152" y="40594"  class="fil1 fnt2">综</text>
   <text x="87397" y="40594"  class="fil1 fnt2">合</text>
   <text x="89641" y="40594"  class="fil1 fnt2">开</text>
   <text x="91886" y="40594"  class="fil1 fnt2">发</text>
   <text x="94131" y="40594"  class="fil1 fnt2">土</text>
   <text x="96375" y="40594"  class="fil1 fnt2">地</text>
   <text x="98620" y="40594"  class="fil1 fnt2">治</text>
   <text x="100865" y="40594"  class="fil1 fnt2">理</text>
   <text x="103109" y="40594"  class="fil1 fnt2">项</text>
   <text x="105354" y="40594"  class="fil1 fnt2">目</text>
  </g>
  <g transform="matrix(0.999999 0 0 0.999999 -51527.8 24496)">
   <text x="64950" y="40594"  class="fil1 fnt2">规</text>
   <text x="67195" y="40594"  class="fil1 fnt2">划</text>
   <text x="69439" y="40594"  class="fil1 fnt2">与</text>
   <text x="71684" y="40594"  class="fil1 fnt2">设</text>
   <text x="73929" y="40594"  class="fil1 fnt2">计</text>
  </g>
  <g transform="matrix(0.999999 0 0 0.999999 -5130.76 22992.4)">
   <text x="64950" y="40594"  class="fil1 fnt1">8</text>
  </g>
  <g transform="matrix(0.999999 0 0 0.999999 1850.31 22992.4)">
   <text x="64950" y="40594"  class="fil1 fnt1">2</text>
   <text x="66076" y="40594"  class="fil1 fnt1">0</text>
   <text x="67203" y="40594"  class="fil1 fnt1">0</text>
   <text x="68329" y="40594"  class="fil1 fnt1">8</text>
  </g>
  <g transform="matrix(0.999999 0 0 0.999999 40192.3 22992.4)">
   <text x="64950" y="40594"  class="fil1 fnt2">陈</text>
   <text x="67195" y="40594"  class="fil1 fnt2">怀</text>
   <text x="69439" y="40594"  class="fil1 fnt2">顺</text>
  </g>
  <g transform="matrix(0.999999 0 0 0.999999 -55823.9 28684.6)">
   <text x="64950" y="40594"  class="fil1 fnt1">1</text>
   <text x="66076" y="40594"  class="fil1 fnt1">4</text>
  </g>
  <g transform="matrix(0.999999 0 0 0.999999 -51527.8 27288.4)">
   <text x="64950" y="40594"  class="fil1 fnt2">那</text>
   <text x="67195" y="40594"  class="fil1 fnt2">曲</text>
   <text x="69439" y="40594"  class="fil1 fnt2">地</text>
   <text x="71684" y="40594"  class="fil1 fnt2">区</text>
   <text x="73929" y="40594"  class="fil1 fnt2">安</text>
   <text x="76173" y="40594"  class="fil1 fnt2">多</text>
   <text x="78418" y="40594"  class="fil1 fnt2">县</text>
   <text x="80663" y="40594"  class="fil1 fnt2">农</text>
   <text x="82907" y="40594"  class="fil1 fnt2">业</text>
   <text x="85152" y="40594"  class="fil1 fnt2">综</text>
   <text x="87397" y="40594"  class="fil1 fnt2">合</text>
   <text x="89641" y="40594"  class="fil1 fnt2">开</text>
   <text x="91886" y="40594"  class="fil1 fnt2">发</text>
   <text x="94131" y="40594"  class="fil1 fnt2">土</text>
   <text x="96375" y="40594"  class="fil1 fnt2">地</text>
   <text x="98620" y="40594"  class="fil1 fnt2">治</text>
   <text x="100865" y="40594"  class="fil1 fnt2">理</text>
   <text x="103109" y="40594"  class="fil1 fnt2">项</text>
   <text x="105354" y="40594"  class="fil1 fnt2">目</text>
  </g>
  <g transform="matrix(0.999999 0 0 0.999999 -51527.8 30188.3)">
   <text x="64950" y="40594"  class="fil1 fnt2">规</text>
   <text x="67195" y="40594"  class="fil1 fnt2">划</text>
   <text x="69439" y="40594"  class="fil1 fnt2">与</text>
   <text x="71684" y="40594"  class="fil1 fnt2">设</text>
   <text x="73929" y="40594"  class="fil1 fnt2">计</text>
  </g>
  <g transform="matrix(0.999999 0 0 0.999999 -5130.76 28684.6)">
   <text x="64950" y="40594"  class="fil1 fnt1">8</text>
  </g>
  <g transform="matrix(0.999999 0 0 0.999999 1850.31 28684.6)">
   <text x="64950" y="40594"  class="fil1 fnt1">2</text>
   <text x="66076" y="40594"  class="fil1 fnt1">0</text>
   <text x="67203" y="40594"  class="fil1 fnt1">1</text>
   <text x="68329" y="40594"  class="fil1 fnt1">2</text>
  </g>
  <g transform="matrix(0.999999 0 0 0.999999 40192.3 28684.6)">
   <text x="64950" y="40594"  class="fil1 fnt2">陈</text>
   <text x="67195" y="40594"  class="fil1 fnt2">怀</text>
   <text x="69439" y="40594"  class="fil1 fnt2">顺</text>
  </g>
  <g transform="matrix(0.999999 0 0 0.999999 -55823.9 34484.3)">
   <text x="64950" y="40594"  class="fil1 fnt1">1</text>
   <text x="66076" y="40594"  class="fil1 fnt1">5</text>
  </g>
  <g transform="matrix(0.999999 0 0 0.999999 -51527.8 32980.7)">
   <text x="64950" y="40594"  class="fil1 fnt2">那</text>
   <text x="67195" y="40594"  class="fil1 fnt2">曲</text>
   <text x="69439" y="40594"  class="fil1 fnt2">地</text>
   <text x="71684" y="40594"  class="fil1 fnt2">区</text>
   <text x="73929" y="40594"  class="fil1 fnt2">嘉</text>
   <text x="76173" y="40594"  class="fil1 fnt2">黎</text>
   <text x="78418" y="40594"  class="fil1 fnt2">县</text>
   <text x="80663" y="40594"  class="fil1 fnt2">农</text>
   <text x="82907" y="40594"  class="fil1 fnt2">业</text>
   <text x="85152" y="40594"  class="fil1 fnt2">综</text>
   <text x="87397" y="40594"  class="fil1 fnt2">合</text>
   <text x="89641" y="40594"  class="fil1 fnt2">开</text>
   <text x="91886" y="40594"  class="fil1 fnt2">发</text>
   <text x="94131" y="40594"  class="fil1 fnt2">土</text>
   <text x="96375" y="40594"  class="fil1 fnt2">地</text>
   <text x="98620" y="40594"  class="fil1 fnt2">治</text>
   <text x="100865" y="40594"  class="fil1 fnt2">理</text>
   <text x="103109" y="40594"  class="fil1 fnt2">项</text>
   <text x="105354" y="40594"  class="fil1 fnt2">目</text>
  </g>
  <g transform="matrix(0.999999 0 0 0.999999 -51527.8 35880.5)">
   <text x="64950" y="40594"  class="fil1 fnt2">规</text>
   <text x="67195" y="40594"  class="fil1 fnt2">划</text>
   <text x="69439" y="40594"  class="fil1 fnt2">与</text>
   <text x="71684" y="40594"  class="fil1 fnt2">设</text>
   <text x="73929" y="40594"  class="fil1 fnt2">计</text>
  </g>
  <g transform="matrix(0.999999 0 0 0.999999 -5130.76 34484.3)">
   <text x="64950" y="40594"  class="fil1 fnt1">8</text>
  </g>
  <g transform="matrix(0.999999 0 0 0.999999 1850.31 34484.3)">
   <text x="64950" y="40594"  class="fil1 fnt1">2</text>
   <text x="66076" y="40594"  class="fil1 fnt1">0</text>
   <text x="67203" y="40594"  class="fil1 fnt1">1</text>
   <text x="68329" y="40594"  class="fil1 fnt1">2</text>
  </g>
  <g transform="matrix(0.999999 0 0 0.999999 40192.3 34484.3)">
   <text x="64950" y="40594"  class="fil1 fnt2">陈</text>
   <text x="67195" y="40594"  class="fil1 fnt2">怀</text>
   <text x="69439" y="40594"  class="fil1 fnt2">顺</text>
  </g>
  <polygon class="fil0" points="7285,25472 121130,25472 121130,25580 7285,25580 "/>
  <polygon class="fil0" points="7193,42733 121038,42733 121038,42840 7193,42840 "/>
  <polygon class="fil0" points="7193,60025 121038,60025 121038,60132 7193,60132 "/>
  <polygon class="fil0" points="64042,5607 64042,77351 63934,77351 63934,5607 "/>
  <g transform="matrix(0.999997 0 0 0.999997 -10050.4 -36871.8)">
   <text x="64950" y="40594"  class="fil1 fnt3">主</text>
   <text x="67784" y="40594"  class="fil1 fnt3">要</text>
   <text x="70617" y="40594"  class="fil1 fnt3">完</text>
   <text x="73451" y="40594"  class="fil1 fnt3">成</text>
   <text x="76284" y="40594"  class="fil1 fnt3">项</text>
   <text x="79118" y="40594"  class="fil1 fnt3">目</text>
  </g>
  <text x="74640" y="74201"  class="fil1 fnt2">西</text>
  <text x="76885" y="74201"  class="fil1 fnt2">藏</text>
  <text x="79130" y="74201"  class="fil1 fnt2">自</text>
  <text x="81375" y="74201"  class="fil1 fnt2">治</text>
  <text x="83619" y="74201"  class="fil1 fnt2">区</text>
  <text x="85864" y="74201"  class="fil1 fnt2">农</text>
  <text x="88109" y="74201"  class="fil1 fnt2">业</text>
  <text x="90353" y="74201"  class="fil1 fnt2">综</text>
  <text x="92598" y="74201"  class="fil1 fnt2">合</text>
  <text x="94843" y="74201"  class="fil1 fnt2">开</text>
  <text x="97087" y="74201"  class="fil1 fnt2">发</text>
  <text x="99332" y="74201"  class="fil1 fnt2">办</text>
  <text x="101577" y="74201"  class="fil1 fnt2">公</text>
  <text x="74640" y="76242"  class="fil1 fnt2">室</text>
  <text x="74640" y="68518"  class="fil1 fnt2">西</text>
  <text x="76885" y="68518"  class="fil1 fnt2">藏</text>
  <text x="79130" y="68518"  class="fil1 fnt2">自</text>
  <text x="81375" y="68518"  class="fil1 fnt2">治</text>
  <text x="83619" y="68518"  class="fil1 fnt2">区</text>
  <text x="85864" y="68518"  class="fil1 fnt2">农</text>
  <text x="88109" y="68518"  class="fil1 fnt2">业</text>
  <text x="90353" y="68518"  class="fil1 fnt2">综</text>
  <text x="92598" y="68518"  class="fil1 fnt2">合</text>
  <text x="94843" y="68518"  class="fil1 fnt2">开</text>
  <text x="97087" y="68518"  class="fil1 fnt2">发</text>
  <text x="99332" y="68518"  class="fil1 fnt2">办</text>
  <text x="101577" y="68518"  class="fil1 fnt2">公</text>
  <text x="74640" y="70559"  class="fil1 fnt2">室</text>
  <text x="74640" y="62835"  class="fil1 fnt2">西</text>
  <text x="76885" y="62835"  class="fil1 fnt2">藏</text>
  <text x="79130" y="62835"  class="fil1 fnt2">自</text>
  <text x="81375" y="62835"  class="fil1 fnt2">治</text>
  <text x="83619" y="62835"  class="fil1 fnt2">区</text>
  <text x="85864" y="62835"  class="fil1 fnt2">农</text>
  <text x="88109" y="62835"  class="fil1 fnt2">业</text>
  <text x="90353" y="62835"  class="fil1 fnt2">综</text>
  <text x="92598" y="62835"  class="fil1 fnt2">合</text>
  <text x="94843" y="62835"  class="fil1 fnt2">开</text>
  <text x="97087" y="62835"  class="fil1 fnt2">发</text>
  <text x="99332" y="62835"  class="fil1 fnt2">办</text>
  <text x="101577" y="62835"  class="fil1 fnt2">公</text>
  <text x="74640" y="64875"  class="fil1 fnt2">室</text>
 </g>
</svg>
